<svg width="121" height="24" viewBox="0 0 121 24" fill="none" xmlns="http://www.w3.org/2000/svg">
    <path fill-rule="evenodd" clip-rule="evenodd" d="M15.5249 16.045C16.3018 15.364 16.8081 14.469 17.0468 13.361H24.7162C24.3647 16.528 23.0914 19.092 20.8975 21.055C18.7025 23.018 16.0003 24 12.7927 24C10.453 24 8.3469 23.485 6.4735 22.456C4.6001 21.427 3.13813 19.997 2.08759 18.166C1.03705 16.335 0.51178 14.28 0.51178 12C0.51178 9.72 1.03705 7.665 2.08759 5.834C3.13813 4.003 4.6001 2.573 6.4735 1.544C8.3469 0.514 10.453 0 12.7927 0C15.9493 0 18.6146 0.947 20.7886 2.842C22.9616 4.736 24.2458 7.219 24.6383 10.29H17.0788C16.7582 9.277 16.21 8.462 15.4331 7.844C14.6571 7.227 13.7873 6.918 12.8247 6.918C11.4995 6.918 10.431 7.385 9.61913 8.319C8.80526 9.253 8.39982 10.48 8.39982 11.999C8.39982 13.509 8.80926 14.731 9.62612 15.665C10.445 16.599 11.5095 17.065 12.8247 17.065C13.8493 17.065 14.75 16.725 15.5259 16.045H15.5249ZM42.7471 9.805C44.2361 11.235 44.981 13.085 44.981 15.352C44.981 17.944 44.1242 20.034 42.4096 21.62C40.694 23.207 38.4351 24 35.629 24C32.8569 24 30.603 23.204 28.8664 21.612C27.1288 20.019 26.261 17.956 26.261 15.419C26.261 14.034 26.4997 12.64 26.976 11.238C27.4524 9.836 28.1893 8.302 29.187 6.638L32.7121 0.768L40.1617 0.767L35.9905 7.693C36.4069 7.671 36.7355 7.66 36.9771 7.66C39.3329 7.66 41.2552 8.375 42.7461 9.805H42.7471ZM37.7171 17.48C38.2534 16.933 38.522 16.224 38.522 15.352C38.522 14.481 38.2534 13.766 37.7171 13.207C37.1799 12.648 36.4838 12.369 35.63 12.369C34.7752 12.369 34.0782 12.649 33.5429 13.207C33.0047 13.766 32.737 14.481 32.737 15.352C32.737 16.224 33.0047 16.933 33.5419 17.48C34.0782 18.028 34.7752 18.302 35.629 18.302C36.4838 18.302 37.1799 18.028 37.7161 17.48H37.7171ZM58.9466 10.96C61.5929 11.744 63.2646 14.089 63.2646 17.12C63.2646 18.795 62.6874 20.25 61.549 21.445C60.4176 22.631 58.9985 23.233 57.3309 23.233H50.1149C50.1016 23.2329 50.0886 23.2301 50.0764 23.2249C50.0642 23.2197 50.0531 23.2122 50.0439 23.2027C50.0346 23.1932 50.0273 23.182 50.0223 23.1697C50.0174 23.1574 50.0149 23.1443 50.015 23.131V0.869C50.015 0.813 50.059 0.767 50.1149 0.767H56.4711C58.0159 0.767 59.2911 1.284 60.2588 2.305C61.2534 3.285 61.7607 4.595 61.7607 6.192C61.7607 8.334 60.6992 10.1 58.9466 10.96V10.96ZM60.9438 20.872C61.9584 19.837 62.4518 18.61 62.4518 17.119C62.4518 15.463 61.9455 14.106 60.9468 13.088C59.9133 12.035 58.64 11.522 57.0542 11.522H50.8289V22.403H57.3299C58.7599 22.403 59.9762 21.888 60.9438 20.873V20.872ZM50.8279 1.597V10.693H56.4711C57.7912 10.693 58.8727 10.271 59.6876 9.44C60.5234 8.588 60.9468 7.495 60.9468 6.192C60.9468 3.486 59.1064 1.597 56.4711 1.597H50.8289H50.8279ZM120.326 23.072C120.337 23.087 120.344 23.1047 120.345 23.1232C120.347 23.1416 120.343 23.1601 120.334 23.1766C120.326 23.1931 120.313 23.207 120.298 23.2168C120.282 23.2266 120.264 23.2318 120.245 23.232H119.489C119.472 23.2321 119.456 23.2283 119.442 23.2208C119.427 23.2133 119.415 23.2024 119.406 23.189L111.318 11.624L107.746 15.83V23.13C107.746 23.1433 107.744 23.1566 107.739 23.169C107.734 23.1815 107.727 23.1928 107.717 23.2024C107.708 23.2119 107.697 23.2196 107.685 23.2248C107.672 23.2301 107.659 23.2329 107.646 23.233H107.045C107.032 23.2329 107.018 23.2301 107.006 23.2249C106.994 23.2197 106.983 23.2122 106.974 23.2027C106.965 23.1932 106.957 23.182 106.952 23.1697C106.947 23.1574 106.945 23.1443 106.945 23.131V0.869C106.945 0.813 106.99 0.767 107.045 0.767H107.646C107.701 0.767 107.746 0.813 107.746 0.869V14.593L119.347 0.803C119.356 0.791764 119.368 0.782723 119.381 0.776505C119.394 0.770288 119.409 0.767044 119.424 0.767H120.219C120.274 0.767 120.319 0.813 120.319 0.869C120.319 0.894 120.309 0.917 120.295 0.935L111.856 10.967L120.326 23.072ZM101.867 0.767C101.922 0.767 101.967 0.813 101.967 0.869V23.131C101.967 23.1443 101.965 23.1574 101.96 23.1697C101.955 23.182 101.947 23.1932 101.938 23.2027C101.929 23.2122 101.918 23.2197 101.906 23.2249C101.893 23.2301 101.88 23.2329 101.867 23.233H101.59C101.575 23.2331 101.559 23.2293 101.545 23.222C101.531 23.2147 101.519 23.204 101.51 23.191L86.9497 2.591V23.131C86.9499 23.1443 86.9474 23.1574 86.9424 23.1697C86.9375 23.182 86.9302 23.1932 86.9209 23.2027C86.9116 23.2122 86.9006 23.2197 86.8884 23.2249C86.8762 23.2301 86.8631 23.2329 86.8499 23.233H86.2367C86.2235 23.2329 86.2104 23.2301 86.1982 23.2249C86.186 23.2197 86.175 23.2122 86.1657 23.2027C86.1564 23.1932 86.1491 23.182 86.1442 23.1697C86.1392 23.1574 86.1367 23.1443 86.1369 23.131V0.869C86.1369 0.813 86.1818 0.767 86.2367 0.767H86.6262C86.6419 0.767231 86.6573 0.771153 86.6711 0.778449C86.685 0.785746 86.697 0.796212 86.7061 0.809L101.153 21.249V0.87C101.153 0.814 101.198 0.768 101.253 0.768H101.867V0.767ZM82.5159 23.095C82.5219 23.1103 82.5241 23.1269 82.5223 23.1432C82.5204 23.1596 82.5147 23.1753 82.5054 23.1889C82.4961 23.2025 82.4837 23.2136 82.4692 23.2213C82.4546 23.229 82.4385 23.233 82.422 23.233H81.7849C81.7641 23.2328 81.7439 23.2262 81.7271 23.214C81.7103 23.2018 81.6977 23.1847 81.691 23.165L79.1426 16.282H68.754L66.2065 23.167C66.1996 23.1863 66.1868 23.203 66.17 23.2148C66.1532 23.2267 66.1332 23.233 66.1127 23.233H65.4746C65.4581 23.2329 65.4419 23.2288 65.4274 23.221C65.4128 23.2131 65.4005 23.2019 65.3913 23.1882C65.3821 23.1745 65.3765 23.1587 65.3748 23.1423C65.3731 23.1259 65.3755 23.1093 65.3817 23.094L73.6602 0.833C73.6672 0.813673 73.6799 0.796968 73.6967 0.785159C73.7135 0.773349 73.7335 0.767009 73.7541 0.767H74.1415C74.1623 0.766875 74.1827 0.773265 74.1997 0.785278C74.2167 0.79729 74.2295 0.814325 74.2364 0.834L82.5149 23.095H82.5159ZM69.0526 15.452H78.845L73.9498 2.369L69.0536 15.452H69.0526Z" fill="white"/>
    </svg>
    