<svg width="32" height="32" viewBox="0 0 32 32" fill="none" xmlns="http://www.w3.org/2000/svg">
    <rect width="32" height="32" rx="16" fill="white"/>
    <path d="M15.9128 6.88829C16.3306 6.3977 17.0716 6.33595 17.5262 6.79258C22.3412 11.6292 22.9546 19.2741 18.9722 24.8165C18.5962 25.3398 17.8548 25.397 17.3642 24.9792C16.8736 24.5615 16.8202 23.828 17.1875 23.2986C20.3455 18.7466 19.8496 12.5659 16.0063 8.5756C15.5593 8.11152 15.4951 7.37888 15.9128 6.88829ZM12.3832 11.0336C12.801 10.543 13.5449 10.4795 13.9747 10.9595C16.529 13.8121 16.8687 18.0458 14.8018 21.2691C14.454 21.8115 13.7095 21.8673 13.2189 21.4496C12.7283 21.0319 12.6811 20.2993 13.0006 19.7398C14.2654 17.5253 14.042 14.7409 12.4404 12.7564C12.0357 12.255 11.9655 11.5242 12.3832 11.0336ZM8.60153 15.4751C9.15848 14.821 10.1929 14.7447 10.4992 15.5473C10.7115 16.1034 10.7602 16.7112 10.6394 17.294C10.4649 18.1353 9.43157 18.2249 8.77745 17.6679C8.12334 17.111 8.04457 16.1292 8.60153 15.4751Z" fill="black"/>
    </svg>
    